<?xml version="1.0" encoding="UTF-8"?>
<svg xmlns="http://www.w3.org/2000/svg" xmlns:xlink="http://www.w3.org/1999/xlink" width="100pt" height="100pt" viewBox="0 0 100 100" version="1.1">
<g id="surface1">
<path style=" stroke:none;fill-rule:nonzero;fill:#FFFFFF;fill-opacity:1;" d="M 20.699219 56.300781 C 20.699219 56.796875 20.296875 57.199219 19.800781 57.199219 C 19.304688 57.199219 18.898438 56.796875 18.898438 56.300781 C 18.898438 55.804688 19.304688 55.398438 19.800781 55.398438 C 20.296875 55.398438 20.699219 55.804688 20.699219 56.300781 Z "/>
<path style=" stroke:none;fill-rule:nonzero;fill:#FFFFFF;fill-opacity:1;" d="M 79.5 31.398438 C 79.5 31.785156 79.1875 32.101563 78.800781 32.101563 C 78.414063 32.101563 78.101563 31.785156 78.101563 31.398438 C 78.101563 31.011719 78.414063 30.699219 78.800781 30.699219 C 79.1875 30.699219 79.5 31.011719 79.5 31.398438 Z "/>
<path style=" stroke:none;fill-rule:nonzero;fill:#F1BC19;fill-opacity:1;" d="M 77.101563 12.398438 C 77.101563 12.898438 76.695313 13.300781 76.199219 13.300781 C 75.703125 13.300781 75.300781 12.898438 75.300781 12.398438 C 75.300781 11.902344 75.703125 11.5 76.199219 11.5 C 76.695313 11.5 77.101563 11.902344 77.101563 12.398438 Z "/>
<path style=" stroke:none;fill-rule:nonzero;fill:#F1BC19;fill-opacity:1;" d="M 21.199219 64 C 21.199219 64.496094 20.796875 64.898438 20.300781 64.898438 C 19.804688 64.898438 19.398438 64.496094 19.398438 64 C 19.398438 63.503906 19.804688 63.101563 20.300781 63.101563 C 20.796875 63.101563 21.199219 63.503906 21.199219 64 Z "/>
<path style=" stroke:none;fill-rule:nonzero;fill:#E6EDB7;fill-opacity:1;" d="M 86.5 49.601563 C 86.5 70.253906 69.753906 87 49.101563 87 C 28.445313 87 11.699219 70.253906 11.699219 49.601563 C 11.699219 28.945313 28.445313 12.199219 49.101563 12.199219 C 69.753906 12.199219 86.5 28.945313 86.5 49.601563 Z "/>
<path style=" stroke:none;fill-rule:nonzero;fill:#F1BC19;fill-opacity:1;" d="M 85.601563 14.601563 C 85.601563 16.808594 83.808594 18.601563 81.601563 18.601563 C 79.390625 18.601563 77.601563 16.808594 77.601563 14.601563 C 77.601563 12.390625 79.390625 10.601563 81.601563 10.601563 C 83.808594 10.601563 85.601563 12.390625 85.601563 14.601563 Z "/>
<path style=" stroke:none;fill-rule:nonzero;fill:#88AE45;fill-opacity:1;" d="M 87.5 23.601563 C 87.5 24.648438 86.648438 25.5 85.601563 25.5 C 84.550781 25.5 83.699219 24.648438 83.699219 23.601563 C 83.699219 22.550781 84.550781 21.699219 85.601563 21.699219 C 86.648438 21.699219 87.5 22.550781 87.5 23.601563 Z "/>
<path style=" stroke:none;fill-rule:nonzero;fill:#FBCD59;fill-opacity:1;" d="M 78.601563 76.101563 C 78.601563 77.148438 77.75 78 76.699219 78 C 75.652344 78 74.800781 77.148438 74.800781 76.101563 C 74.800781 75.050781 75.652344 74.199219 76.699219 74.199219 C 77.75 74.199219 78.601563 75.050781 78.601563 76.101563 Z "/>
<path style=" stroke:none;fill-rule:nonzero;fill:#FBCD59;fill-opacity:1;" d="M 17.5 63.101563 C 17.5 65.308594 15.710938 67.101563 13.5 67.101563 C 11.289063 67.101563 9.5 65.308594 9.5 63.101563 C 9.5 60.890625 11.289063 59.101563 13.5 59.101563 C 15.710938 59.101563 17.5 60.890625 17.5 63.101563 Z "/>
<path style=" stroke:none;fill-rule:nonzero;fill:#88AE45;fill-opacity:1;" d="M 25.601563 87.199219 C 25.601563 88.25 24.75 89.101563 23.699219 89.101563 C 22.652344 89.101563 21.800781 88.25 21.800781 87.199219 C 21.800781 86.152344 22.652344 85.300781 23.699219 85.300781 C 24.75 85.300781 25.601563 86.152344 25.601563 87.199219 Z "/>
<path style=" stroke:none;fill-rule:nonzero;fill:#FFFFFF;fill-opacity:1;" d="M 77.101563 29.898438 C 77.101563 30.894531 76.292969 31.699219 75.300781 31.699219 C 74.304688 31.699219 73.5 30.894531 73.5 29.898438 C 73.5 28.90625 74.304688 28.101563 75.300781 28.101563 C 76.292969 28.101563 77.101563 28.90625 77.101563 29.898438 Z "/>
<path style=" stroke:none;fill-rule:nonzero;fill:#FFFFFF;fill-opacity:1;" d="M 19.699219 51 C 19.699219 52.378906 18.582031 53.5 17.199219 53.5 C 15.820313 53.5 14.699219 52.378906 14.699219 51 C 14.699219 49.621094 15.820313 48.5 17.199219 48.5 C 18.582031 48.5 19.699219 49.621094 19.699219 51 Z "/>
<path style=" stroke:none;fill-rule:nonzero;fill:#E5AC80;fill-opacity:1;" d="M 67.601563 70.800781 C 67.199219 68.699219 66.300781 67.398438 64.300781 66.800781 L 64 66.699219 L 63.398438 66.5 C 62.101563 66 54.699219 63.199219 54.699219 63.199219 C 54.101563 63 53.699219 62.601563 53.5 62.101563 C 53.300781 61.101563 53.199219 60.199219 53.300781 59.199219 C 51.699219 59.800781 50 60.199219 48.300781 60.601563 C 46.398438 60.800781 42.300781 58.300781 42.300781 58.300781 C 42.300781 58.300781 42.199219 61.300781 42.101563 62 C 41.898438 62.601563 41.398438 63 40.800781 63.101563 L 33.699219 65.699219 C 32.898438 65.898438 32.199219 66.199219 31.5 66.601563 C 30 67.601563 28.898438 69 28.300781 70.800781 C 28.300781 70.800781 27.800781 74.101563 27.800781 74.199219 C 27.800781 74.699219 27.699219 75.199219 27.699219 75.699219 C 35.5 81 41.699219 82.398438 52.398438 82 C 57.300781 81.800781 64.5 79.398438 68.300781 77.5 C 67.898438 73.300781 67.601563 70.800781 67.601563 70.800781 Z "/>
<path style=" stroke:none;fill-rule:nonzero;fill:#6F913D;fill-opacity:1;" d="M 64 66.699219 L 63.699219 66.601563 L 63.101563 66.398438 C 62.300781 66.101563 59.199219 64.898438 56.898438 64.101563 L 56.800781 64.101563 C 54.300781 65.398438 50.699219 67.300781 47.398438 67.300781 C 44.101563 67.300781 40.800781 65.398438 38 64 L 37.699219 64.101563 L 33.300781 65.699219 C 32.5 65.898438 31.800781 66.199219 31.101563 66.601563 C 29.601563 67.601563 28.5 69 27.898438 70.800781 C 27.898438 70.800781 27.398438 74.101563 27.398438 74.199219 C 27.398438 74.699219 27.300781 79.601563 27.300781 80.199219 C 35.101563 85.5 41.300781 86.898438 52 86.5 C 56.898438 86.300781 64.101563 83.898438 67.898438 82 C 67.699219 77.800781 67.300781 70.800781 67.300781 70.800781 C 67 68.601563 66.101563 67.300781 64 66.699219 Z "/>
<path style=" stroke:none;fill-rule:evenodd;fill:#88AE45;fill-opacity:1;" d="M 28.800781 68.898438 C 27.601563 72 27.300781 74.800781 27.300781 80.398438 L 34.101563 84.300781 C 34.101563 76.300781 35.398438 70.300781 28.800781 68.898438 Z "/>
<path style=" stroke:none;fill-rule:evenodd;fill:#88AE45;fill-opacity:1;" d="M 55.5 63.601563 C 55.398438 63.601563 55.398438 63.601563 55.300781 63.5 C 51 68 43.800781 68.199219 39.300781 63.898438 C 39.199219 63.800781 39.199219 63.800781 39.101563 63.699219 C 38.601563 64 38.101563 64.199219 37.601563 64.300781 C 41.699219 68.699219 50.300781 71.898438 56.601563 63.898438 C 56.300781 63.800781 55.898438 63.699219 55.5 63.601563 Z "/>
<path style=" stroke:none;fill-rule:evenodd;fill:#88AE45;fill-opacity:1;" d="M 67.398438 70.699219 C 67.898438 74.5 68.101563 78.300781 68.199219 82.101563 L 61.398438 85.101563 C 61.300781 77.101563 60.800781 72.101563 67.398438 70.699219 Z "/>
<path style=" stroke:none;fill-rule:nonzero;fill:#EDBC94;fill-opacity:1;" d="M 59.898438 44.5 L 59.5 44.5 C 58.5 44.5 58.300781 44.800781 58.300781 44.199219 C 58.398438 43.199219 58.199219 38.898438 58.199219 38.699219 C 58.199219 34.300781 53.5 30.699219 47.699219 30.5 L 47.5 30.5 C 41.699219 30.699219 37 34.300781 37 38.699219 C 37 38.898438 36.800781 43.199219 36.898438 44.199219 C 36.898438 44.800781 36.699219 44.398438 35.699219 44.5 L 35.300781 44.5 C 34.300781 44.5 33.5 45.101563 33.199219 46 C 33.300781 46.101563 33.800781 49.699219 34.601563 51.101563 C 35 51.898438 35.699219 52 36.398438 52.5 C 36.699219 52.699219 36.898438 53.101563 37 53.5 C 37.5 55.101563 38.398438 56.398438 39.699219 57.5 C 40.300781 58.101563 44.199219 62.199219 47.601563 62 C 51 61.800781 54.898438 58.101563 55.5 57.5 C 56.699219 56.398438 57.699219 55.101563 58.199219 53.5 C 58.300781 53.101563 58.5 52.699219 58.800781 52.5 C 59.5 52 60.199219 51.898438 60.601563 51.101563 C 61.398438 49.699219 61.898438 46.101563 62 46 C 61.699219 45.101563 60.800781 44.5 59.898438 44.5 Z "/>
<path style=" stroke:none;fill-rule:nonzero;fill:#512C2B;fill-opacity:1;" d="M 47.699219 52.398438 C 48.398438 52.398438 49 52.101563 49.5 51.601563 C 49.5 51.601563 49.5 51.5 49.5 51.398438 C 49.5 51.398438 49.398438 51.398438 49.300781 51.398438 C 48.898438 51.800781 48.300781 52.101563 47.699219 52 C 47.101563 52 46.5 51.800781 46.101563 51.398438 C 46.101563 51.398438 46 51.398438 46 51.398438 C 46 51.398438 46 51.398438 45.898438 51.398438 C 45.898438 51.398438 45.898438 51.5 45.898438 51.601563 C 46.398438 52.101563 47 52.398438 47.699219 52.398438 Z "/>
<path style=" stroke:none;fill-rule:nonzero;fill:#512C2B;fill-opacity:1;" d="M 45.5 42.199219 L 45.898438 41.398438 C 44 41 42.101563 41 40.199219 41.601563 L 40.699219 42.398438 C 42.398438 41.800781 44 41.800781 45.5 42.199219 Z "/>
<path style=" stroke:none;fill-rule:nonzero;fill:#512C2B;fill-opacity:1;" d="M 54.699219 42.199219 L 55.101563 41.398438 C 53.199219 41 51.300781 41 49.398438 41.601563 L 49.898438 42.398438 C 51.5 41.800781 53.199219 41.800781 54.699219 42.199219 Z "/>
<path style=" stroke:none;fill-rule:nonzero;fill:#512C2B;fill-opacity:1;" d="M 42.898438 43.300781 C 42.5 43.300781 42.101563 43.601563 41.898438 44 C 41.898438 44 42 44 42 43.898438 C 42.398438 43.898438 42.699219 44.199219 42.699219 44.601563 C 42.699219 45 42.398438 45.300781 42 45.300781 C 41.898438 45.300781 41.800781 45.300781 41.699219 45.199219 C 41.800781 45.800781 42.300781 46.300781 42.898438 46.300781 C 43.800781 46.101563 44.300781 45.199219 44.101563 44.300781 C 43.898438 43.898438 43.5 43.398438 42.898438 43.300781 Z "/>
<path style=" stroke:none;fill-rule:nonzero;fill:#512C2B;fill-opacity:1;" d="M 52.5 43.300781 C 52.101563 43.300781 51.800781 43.5 51.601563 43.800781 C 51.699219 43.800781 51.800781 43.800781 51.800781 43.800781 C 52.199219 43.800781 52.5 44.101563 52.5 44.5 C 52.5 44.898438 52.199219 45.199219 51.800781 45.199219 C 51.601563 45.199219 51.398438 45.101563 51.300781 44.898438 C 51.101563 45.601563 51.601563 46.300781 52.300781 46.398438 C 53 46.601563 53.699219 46.101563 53.800781 45.398438 C 53.800781 45.199219 53.800781 45 53.800781 44.800781 C 53.800781 44.199219 53.300781 43.398438 52.5 43.300781 Z "/>
<path style=" stroke:none;fill-rule:nonzero;fill:#472B29;fill-opacity:1;" d="M 48.800781 87.199219 C 39.898438 87.199219 34.199219 85.398438 27.398438 80.800781 C 27.300781 80.699219 27.199219 80.601563 27.199219 80.398438 C 27.199219 80.300781 27.199219 80 27.199219 79.5 C 27.199219 77.300781 27.300781 72.699219 27.800781 70.898438 C 28.199219 69 29.398438 67.398438 31.199219 66.601563 C 31.898438 66.199219 32.699219 65.898438 33.5 65.699219 L 40.601563 63.101563 C 41.101563 63 41.5 62.699219 41.601563 62.199219 C 41.601563 61.898438 41.699219 61 41.699219 60.199219 C 41 59.699219 40.199219 59.101563 39.601563 58.601563 C 38.300781 57.398438 37.300781 55.898438 36.800781 54.300781 C 36.800781 53.898438 36.601563 53.601563 36.398438 53.398438 C 36.199219 53.199219 36 53.101563 35.800781 53 C 35.300781 52.699219 34.898438 52.5 34.5 51.800781 C 33.699219 50.101563 33.199219 48.300781 33.101563 46.398438 C 33.101563 46.398438 33.101563 46.300781 33.101563 46.300781 C 33.398438 45.199219 34.398438 44.398438 35.601563 44.398438 L 36 44.398438 C 36.300781 44.398438 36.601563 44.398438 36.800781 44.398438 C 36.699219 43.398438 36.800781 40.601563 36.898438 39.398438 C 36.898438 39.101563 36.898438 38.898438 36.898438 38.898438 C 36.898438 34.199219 41.699219 30.300781 47.800781 30.101563 L 48 30.101563 C 54.101563 30.300781 58.898438 34.199219 58.898438 38.898438 C 58.898438 38.898438 58.898438 39.101563 58.898438 39.398438 C 58.898438 40.601563 59 43.398438 59 44.398438 C 59.199219 44.398438 59.398438 44.300781 59.800781 44.300781 L 60.199219 44.300781 C 61.398438 44.300781 62.398438 45.101563 62.699219 46.199219 C 62.699219 46.199219 62.699219 46.300781 62.699219 46.300781 C 62.5 48.199219 62 50 61.199219 51.699219 C 60.800781 52.398438 60.398438 52.601563 59.898438 52.898438 C 59.699219 53 59.5 53.101563 59.300781 53.300781 C 59.101563 53.5 58.898438 53.800781 58.898438 54.101563 C 58.398438 55.898438 57.398438 57.300781 56.101563 58.5 C 55.398438 59.101563 54.601563 59.699219 53.800781 60.300781 C 53.800781 61 53.898438 61.601563 54.101563 62.300781 C 54.300781 62.699219 54.601563 63 55.101563 63.101563 C 55.398438 63.199219 62.601563 65.898438 63.800781 66.398438 L 64.699219 66.800781 C 66.699219 67.398438 67.800781 68.699219 68.300781 71.101563 C 68.300781 71.101563 68.300781 71.101563 68.300781 71.199219 C 68.300781 71.199219 68.601563 78.199219 68.800781 82.398438 C 68.800781 82.601563 68.699219 82.699219 68.601563 82.800781 C 64.601563 84.800781 57.300781 87.199219 52.5 87.398438 C 51 87.101563 49.898438 87.199219 48.800781 87.199219 Z M 27.898438 80.199219 C 35.300781 85.199219 41.5 86.699219 52.199219 86.300781 C 56.699219 86.101563 63.699219 83.898438 67.699219 81.898438 C 67.5 77.898438 67.199219 71.5 67.199219 71 C 66.800781 68.898438 65.898438 67.898438 64.101563 67.300781 L 63.101563 66.898438 C 61.898438 66.398438 54.5 63.699219 54.398438 63.601563 C 53.800781 63.398438 53.199219 62.898438 52.898438 62.300781 C 52.601563 61.5 52.601563 60.699219 52.601563 59.800781 C 52.601563 59.699219 52.699219 59.601563 52.800781 59.5 C 53.601563 58.898438 54.398438 58.300781 55.199219 57.699219 C 56.398438 56.601563 57.300781 55.300781 57.800781 53.800781 C 57.800781 53.398438 58.101563 52.898438 58.5 52.601563 C 58.699219 52.398438 59 52.300781 59.199219 52.101563 C 59.601563 51.898438 59.898438 51.699219 60.199219 51.199219 C 60.898438 49.601563 61.398438 47.898438 61.601563 46.199219 C 61.398438 45.5 60.699219 45 59.898438 45 L 59.5 45 C 59.199219 45 59 45 58.800781 45.101563 C 58.5 45.101563 58.300781 45.199219 58.101563 45 C 57.898438 44.800781 57.898438 44.5 57.898438 44.398438 C 58 43.601563 57.898438 40.5 57.800781 39.300781 C 57.800781 39 57.800781 38.800781 57.800781 38.800781 C 57.800781 34.5 53.398438 31 47.699219 30.800781 L 47.5 30.800781 C 41.898438 31 37.398438 34.5 37.398438 38.800781 C 37.398438 38.800781 37.398438 39 37.398438 39.300781 C 37.398438 40.5 37.300781 43.5 37.300781 44.398438 C 37.300781 44.699219 37.300781 44.898438 37.101563 45 C 36.898438 45.199219 36.699219 45.101563 36.398438 45.101563 C 36.199219 45.101563 36 45 35.699219 45.101563 L 35.300781 45.101563 C 34.5 45.101563 33.898438 45.601563 33.601563 46.300781 C 33.800781 48 34.199219 49.699219 34.898438 51.300781 C 35.101563 51.699219 35.5 51.898438 35.898438 52.101563 C 36.101563 52.199219 36.398438 52.398438 36.601563 52.601563 C 37 52.898438 37.300781 53.398438 37.300781 53.898438 C 37.800781 55.398438 38.601563 56.699219 39.800781 57.800781 C 40.5 58.398438 41.300781 59 42 59.5 C 42.101563 59.601563 42.199219 59.699219 42.199219 59.800781 C 42.199219 60.800781 42.101563 61.898438 42 62.300781 C 41.699219 63.101563 41.101563 63.601563 40.398438 63.800781 L 33.300781 66.398438 C 32.5 66.601563 31.800781 66.898438 31.199219 67.300781 C 29.699219 68.101563 28.601563 69.5 28.199219 71.101563 C 27.699219 72.800781 27.699219 77.5 27.601563 79.5 C 27.898438 79.800781 27.898438 80 27.898438 80.199219 Z "/>
<path style=" stroke:none;fill-rule:nonzero;fill:#D3A47D;fill-opacity:1;" d="M 59.898438 49.199219 L 59.300781 49.101563 L 59.5 47.300781 L 58.5 47.699219 L 58.300781 47.101563 L 59.800781 46.5 C 59.898438 46.5 60 46.5 60.101563 46.5 C 60.199219 46.5 60.199219 46.699219 60.199219 46.800781 Z "/>
<path style=" stroke:none;fill-rule:nonzero;fill:#D3A47D;fill-opacity:1;" d="M 35.699219 48.898438 L 35.398438 46.601563 C 35.398438 46.5 35.398438 46.398438 35.5 46.300781 C 35.601563 46.199219 35.699219 46.199219 35.800781 46.300781 L 37.300781 47 L 37.101563 47.5 L 36.101563 47.101563 L 36.300781 48.898438 Z "/>
<path style=" stroke:none;fill-rule:nonzero;fill:#472B29;fill-opacity:1;" d="M 37 53.300781 C 36.898438 53.300781 36.800781 53.199219 36.800781 53.101563 L 37 44.5 C 37 44.398438 37.101563 44.300781 37.199219 44.300781 C 37.300781 44.300781 37.398438 44.398438 37.398438 44.5 L 37.199219 53.101563 C 37.199219 53.199219 37.101563 53.300781 37 53.300781 Z "/>
<path style=" stroke:none;fill-rule:nonzero;fill:#472B29;fill-opacity:1;" d="M 58.398438 53.300781 C 58.300781 53.300781 58.199219 53.199219 58.199219 53.101563 L 58 44.5 C 58 44.398438 58.101563 44.300781 58.199219 44.300781 C 58.300781 44.300781 58.398438 44.398438 58.398438 44.5 L 58.601563 53.101563 C 58.601563 53.199219 58.5 53.300781 58.398438 53.300781 Z "/>
<path style=" stroke:none;fill-rule:nonzero;fill:#472B29;fill-opacity:1;" d="M 54.199219 58.699219 C 52.398438 59.898438 49 60.601563 48.398438 59.5 C 47.898438 58.699219 47.199219 58.699219 46.800781 59.5 C 46.101563 60.699219 42.5 59.5 40.601563 58.101563 C 40.101563 58.101563 40.601563 58.300781 40.199219 58.601563 C 42.601563 60.699219 47.398438 63.5 47.601563 63.398438 C 50 62.199219 52.300781 60.699219 54.5 59 C 54 58.800781 54.800781 58.699219 54.199219 58.699219 Z "/>
<path style=" stroke:none;fill-rule:nonzero;fill:#EE3E54;fill-opacity:1;" d="M 46.300781 43.398438 C 44.300781 41.699219 36.800781 42.898438 36.800781 42.898438 C 36.898438 43.300781 37.101563 43.699219 37.199219 44.101563 C 37.699219 44.101563 37.800781 45 37.800781 45.398438 C 38.101563 47 39.601563 48.101563 42.699219 48.101563 C 45.800781 48.101563 46.5 46.398438 46.699219 45.398438 C 46.800781 44.601563 46.699219 44 46.300781 43.398438 Z M 46 45.398438 C 45.800781 46.800781 44.601563 47.601563 42.699219 47.699219 L 42.101563 47.699219 C 39 47.699219 38.5 45.800781 38.398438 44.5 C 38.398438 43.800781 39.101563 43.199219 40.101563 43.101563 C 40.699219 43.101563 41.300781 43.101563 42.101563 43.101563 C 44.398438 43.101563 45.398438 43.5 45.699219 43.800781 C 45.898438 44.300781 46.101563 44.800781 46 45.398438 Z "/>
<path style=" stroke:none;fill-rule:nonzero;fill:#EE3E54;fill-opacity:1;" d="M 48.5 45.300781 C 48.601563 46.300781 49.398438 47.898438 52.5 48 C 55.601563 48.101563 57.101563 46.898438 57.398438 45.300781 C 57.398438 45 57.5 44.101563 58 44 C 58.101563 43.601563 58.199219 43.199219 58.398438 42.800781 C 58.398438 42.800781 50.898438 41.601563 48.898438 43.300781 C 48.601563 44 48.398438 44.601563 48.5 45.300781 Z M 49.699219 43.800781 C 50 43.5 51 43.101563 53.300781 43.101563 C 54 43.101563 54.699219 43.101563 55.300781 43.101563 C 56.300781 43.199219 57 43.800781 57 44.5 C 56.898438 45.699219 56.398438 47.699219 53.300781 47.699219 L 52.699219 47.699219 C 50.699219 47.601563 49.5 46.800781 49.398438 45.398438 C 49.199219 44.800781 49.398438 44.300781 49.699219 43.800781 Z "/>
<path style=" stroke:none;fill-rule:nonzero;fill:#EE3E54;fill-opacity:1;" d="M 49 44.800781 C 48.601563 44.601563 48.101563 44.5 47.601563 44.5 C 47.199219 44.5 46.699219 44.601563 46.300781 44.800781 C 46.199219 44.5 46 44.300781 45.898438 44 L 49.398438 44 C 49.199219 44.300781 49.101563 44.5 49 44.800781 Z "/>
<path style=" stroke:none;fill-rule:nonzero;fill:#512C2B;fill-opacity:1;" d="M 37.800781 38 C 38.300781 36.199219 39 34.601563 40.101563 33.101563 C 39.699219 32.699219 39.101563 32.601563 38.601563 32.699219 C 37.199219 34.699219 36.5 37 36.5 39.398438 C 36.601563 40.5 36.800781 41.5 37.199219 42.5 C 37.5 41 37.398438 39.5 37.800781 38 Z "/>
<path style=" stroke:none;fill-rule:nonzero;fill:#512C2B;fill-opacity:1;" d="M 57.300781 38 C 56.800781 36.199219 56.101563 34.601563 55 33.101563 C 55.398438 32.699219 56 32.601563 56.5 32.699219 C 57.898438 34.699219 58.601563 37 58.601563 39.398438 C 58.5 40.5 58.300781 41.5 57.898438 42.5 C 57.601563 41 57.800781 39.5 57.300781 38 Z "/>
<path style=" stroke:none;fill-rule:nonzero;fill:#512C2B;fill-opacity:1;" d="M 48.800781 34.300781 C 50.800781 34.898438 53 35 55 34.398438 C 57 33.601563 58.601563 31.898438 59.101563 29.800781 C 57.300781 30.699219 55.300781 29.300781 53.5 28.398438 C 48.898438 26.300781 43.5 27.398438 40 31 C 38.199219 32.898438 37.300781 34.5 40.300781 34.101563 C 43.101563 33.5 46 33.601563 48.800781 34.300781 Z "/>
<path style=" stroke:none;fill-rule:nonzero;fill:#6D1B18;fill-opacity:1;" d="M 44.199219 54.699219 C 44.199219 54.898438 44.101563 55 44.101563 55.199219 C 44.101563 56.601563 45.601563 57.699219 47.5 57.699219 C 49.398438 57.699219 50.898438 56.601563 50.898438 55.199219 C 50.898438 55 50.898438 54.898438 50.800781 54.699219 Z "/>
<path style=" stroke:none;fill-rule:nonzero;fill:#EE3E54;fill-opacity:1;" d="M 49.398438 57.300781 C 48.300781 56.5 46.800781 56.5 45.800781 57.300781 C 47 57.800781 48.300781 57.800781 49.398438 57.300781 Z "/>
<path style=" stroke:none;fill-rule:nonzero;fill:#FDFCEF;fill-opacity:1;" d="M 45.199219 54.699219 L 45.199219 55.101563 C 45.199219 55.5 45.699219 55.800781 46.300781 55.800781 L 48.898438 55.800781 C 49.5 55.800781 50 55.5 50 55.101563 L 50 54.699219 Z "/>
<path style=" stroke:none;fill-rule:nonzero;fill:#472B29;fill-opacity:1;" d="M 47.601563 57.898438 C 45.601563 57.898438 44 56.699219 44 55.199219 C 44 55 44 54.800781 44.101563 54.699219 C 44.101563 54.601563 44.199219 54.601563 44.300781 54.601563 L 51 54.601563 C 51.101563 54.601563 51.199219 54.699219 51.199219 54.699219 C 51.199219 54.898438 51.300781 55 51.300781 55.199219 C 51.300781 56.699219 49.601563 57.898438 47.601563 57.898438 Z M 44.398438 54.898438 C 44.398438 55 44.398438 55.101563 44.398438 55.199219 C 44.398438 56.5 45.800781 57.5 47.601563 57.5 C 49.398438 57.5 50.800781 56.5 50.800781 55.199219 C 50.800781 55.101563 50.800781 55 50.800781 54.898438 Z "/>
<path style=" stroke:none;fill-rule:nonzero;fill:#FDFCEE;fill-opacity:1;" d="M 84 72.5 C 84 80.453125 77.554688 86.898438 69.601563 86.898438 C 61.648438 86.898438 55.199219 80.453125 55.199219 72.5 C 55.199219 64.546875 61.648438 58.101563 69.601563 58.101563 C 77.554688 58.101563 84 64.546875 84 72.5 Z "/>
<path style=" stroke:none;fill-rule:nonzero;fill:#472B29;fill-opacity:1;" d="M 69.601563 87.300781 C 61.398438 87.300781 54.800781 80.699219 54.800781 72.5 C 54.800781 64.300781 61.398438 57.699219 69.601563 57.699219 C 77.800781 57.699219 84.398438 64.300781 84.398438 72.5 C 84.398438 80.699219 77.800781 87.300781 69.601563 87.300781 Z M 69.601563 58.5 C 61.800781 58.5 55.5 64.800781 55.5 72.601563 C 55.5 80.398438 61.800781 86.699219 69.601563 86.699219 C 77.398438 86.699219 83.699219 80.398438 83.699219 72.601563 C 83.699219 64.800781 77.300781 58.5 69.601563 58.5 Z "/>
<path style=" stroke:none;fill-rule:nonzero;fill:#93BC39;fill-opacity:1;" d="M 81.5 72.5 C 81.5 79.070313 76.171875 84.398438 69.601563 84.398438 C 63.027344 84.398438 57.699219 79.070313 57.699219 72.5 C 57.699219 65.929688 63.027344 60.601563 69.601563 60.601563 C 76.171875 60.601563 81.5 65.929688 81.5 72.5 Z "/>
<path style=" stroke:none;fill-rule:nonzero;fill:#472B29;fill-opacity:1;" d="M 69.601563 84.699219 C 62.898438 84.699219 57.398438 79.199219 57.398438 72.5 C 57.398438 65.800781 62.898438 60.300781 69.601563 60.300781 C 76.300781 60.300781 81.800781 65.800781 81.800781 72.5 C 81.800781 79.199219 76.300781 84.699219 69.601563 84.699219 Z M 69.601563 60.800781 C 63.199219 60.800781 57.898438 66 57.898438 72.5 C 57.898438 79 63.101563 84.199219 69.601563 84.199219 C 76.101563 84.199219 81.300781 79 81.300781 72.5 C 81.300781 66 76 60.800781 69.601563 60.800781 Z "/>
<path style=" stroke:none;fill-rule:nonzero;fill:#C0D078;fill-opacity:0.788235;" d="M 69.601563 62.398438 C 74.699219 62.398438 79.300781 65.601563 81 70.300781 C 79.898438 64 73.800781 59.898438 67.5 61 C 62.800781 61.898438 59 65.601563 58.199219 70.300781 C 59.898438 65.601563 64.5 62.398438 69.601563 62.398438 Z "/>
<path style=" stroke:none;fill-rule:nonzero;fill:#FDFCEE;fill-opacity:1;" d="M 69.601563 78.800781 C 69 78.800781 68.398438 78.300781 68.398438 77.601563 L 68.398438 73.699219 L 64.5 73.699219 C 63.800781 73.699219 63.300781 73.199219 63.300781 72.5 C 63.300781 71.800781 63.800781 71.300781 64.5 71.300781 L 68.398438 71.300781 L 68.398438 67.398438 C 68.5 66.800781 69 66.300781 69.699219 66.300781 C 70.300781 66.398438 70.699219 66.800781 70.800781 67.398438 L 70.800781 71.300781 L 74.699219 71.300781 C 75.398438 71.300781 75.898438 71.800781 75.898438 72.5 C 75.898438 73.199219 75.398438 73.699219 74.699219 73.699219 L 70.800781 73.699219 L 70.800781 77.601563 C 70.800781 78.300781 70.300781 78.800781 69.601563 78.800781 Z "/>
<path style=" stroke:none;fill-rule:nonzero;fill:#472B29;fill-opacity:1;" d="M 69.601563 66.5 C 70.101563 66.5 70.5 66.898438 70.5 67.398438 L 70.5 71.601563 L 74.699219 71.601563 C 75.199219 71.601563 75.601563 72 75.601563 72.5 C 75.601563 73 75.199219 73.398438 74.699219 73.398438 L 70.5 73.398438 L 70.5 77.601563 C 70.398438 78.101563 70 78.5 69.5 78.398438 C 69.101563 78.398438 68.699219 78 68.699219 77.601563 L 68.699219 73.398438 L 64.5 73.398438 C 64 73.398438 63.601563 73 63.601563 72.5 C 63.601563 72 64 71.601563 64.5 71.601563 L 68.699219 71.601563 L 68.699219 67.398438 C 68.699219 66.898438 69.101563 66.5 69.601563 66.5 M 69.601563 66 C 68.800781 66 68.199219 66.601563 68.199219 67.398438 L 68.199219 71.101563 L 64.5 71.101563 C 63.699219 71.101563 63.101563 71.699219 63.101563 72.5 C 63.101563 73.300781 63.699219 73.898438 64.5 73.898438 L 68.199219 73.898438 L 68.199219 77.601563 C 68.300781 78.398438 69 79 69.699219 78.898438 C 70.398438 78.800781 70.898438 78.300781 71 77.601563 L 71 74 L 74.699219 74 C 75.5 74 76.101563 73.398438 76.101563 72.601563 C 76.101563 71.800781 75.5 71.199219 74.699219 71.199219 L 71 71.199219 L 71 67.5 C 71 66.601563 70.398438 66 69.601563 66 Z "/>
</g>
</svg>
